<svg width="157" height="37" viewBox="0 0 157 37" fill="none" xmlns="http://www.w3.org/2000/svg">
<g clip-path="url(#clip0_952_577)">
<path d="M21.1455 8.56958H10.5769V10.9314H21.1455V8.56958Z" fill="white"/>
<path d="M26.44 0H19.447L21.1348 2.36675L26.2328 3.91493C27.1774 4.21118 27.7791 5.0795 27.7725 6.01269C27.7725 6.01468 27.7728 6.01662 27.7728 6.01855V13.5862C27.7728 13.5881 27.7725 13.5901 27.7725 13.592C27.7791 14.5252 27.1774 15.3935 26.2328 15.6898L21.1348 17.238L19.447 19.6047H26.44C29.3571 19.6047 31.722 17.2608 31.722 14.3695V5.23515C31.722 2.3439 29.3571 0 26.44 0Z" fill="white"/>
<path d="M5.28198 0H12.2749L10.5872 2.36675L5.48915 3.91493C4.54453 4.21118 3.9429 5.0795 3.94943 6.01269C3.94943 6.01468 3.94912 6.01662 3.94912 6.01855V13.5862C3.94912 13.5881 3.94943 13.5901 3.94943 13.592C3.9429 14.5252 4.54453 15.3935 5.48915 15.6898L10.5872 17.238L12.2749 19.6047H5.28198C2.36481 19.6047 0 17.2608 0 14.3695V5.23515C0 2.3439 2.36481 0 5.28198 0Z" fill="white"/>
<path d="M117.347 13.6889C117.347 15.3819 115.942 16.7592 114.215 16.7592C112.488 16.7592 111.082 15.3819 111.082 13.6889V6.19394C111.082 4.50094 112.487 3.12359 114.215 3.12359C115.942 3.12359 117.347 4.50094 117.347 6.19394V6.28582H119.744V6.19394C119.744 3.20622 117.264 0.775635 114.215 0.775635C111.166 0.775635 108.686 3.20622 108.686 6.19394V13.6817C108.686 16.6692 111.166 19.0998 114.215 19.0998C117.259 19.0998 119.739 16.6724 119.744 13.6888L119.744 13.5896H117.347V13.689V13.6889Z" fill="white"/>
<path d="M129.804 5.61902C127.263 5.61902 125.176 7.57068 125.052 10.0629V14.6546C125.176 17.1473 127.263 19.0998 129.804 19.0998C132.345 19.0998 134.433 17.1456 134.556 14.6499V10.0582C134.432 7.56899 132.345 5.61902 129.804 5.61902ZM132.154 14.3873C132.131 15.695 131.099 16.7194 129.804 16.7194C128.51 16.7194 127.478 15.6956 127.454 14.3889V10.3313C127.454 9.04553 128.508 7.99943 129.804 7.99943C131.1 7.99943 132.154 9.04553 132.154 10.3313V14.3873Z" fill="white"/>
<path d="M123.327 0.776611H120.937V18.8026H123.327V0.776611Z" fill="white"/>
<path d="M57.465 5.61902H55.0749V18.8027H57.465V5.61902Z" fill="white"/>
<path d="M52.6892 0.776611H50.2992V18.8026H52.6892V0.776611Z" fill="white"/>
<path d="M44.2709 0.776611H41.3298L36.4998 18.7791L36.4933 18.8026H38.8796L40.1626 14.0201L45.4423 14.0358L46.7176 18.7889L46.7213 18.8026H49.1074L44.2746 0.790454L44.2709 0.776611ZM44.8085 11.6741H40.7919L42.8003 4.18874L44.8085 11.6741Z" fill="white"/>
<path d="M143.386 14.6356C143.386 15.9233 142.329 16.971 141.03 16.971C139.731 16.971 138.673 15.9233 138.673 14.6356V5.61902H136.283V15.0222C136.283 17.2703 138.128 19.0992 140.397 19.0992C140.814 19.0992 141.226 19.0373 141.622 18.9153C141.853 18.8469 142.075 18.7557 142.28 18.644C142.647 18.4558 142.982 18.2171 143.273 17.9344L143.375 17.8347V18.8027H145.786V5.61902H143.386V14.6356V14.6356Z" fill="white"/>
<path d="M57.465 0.776611H55.0749V3.14602H57.465V0.776611Z" fill="white"/>
<path d="M65.2207 5.60769C64.14 5.60769 63.1181 6.02146 62.3437 6.77275L62.241 6.87219V0.778442H59.8506V18.8045H62.241V17.8364L62.3437 17.9358C63.1181 18.6872 64.1397 19.101 65.2207 19.101C67.4893 19.101 69.3351 17.2714 69.3351 15.0227V9.68583C69.3351 7.43707 67.4893 5.60763 65.2207 5.60763V5.60769ZM66.9753 10.1189V14.5897C66.9753 15.8808 65.9155 16.9311 64.6129 16.9311C63.3103 16.9311 62.2505 15.8808 62.2505 14.5897V10.1189C62.2505 8.82796 63.3103 7.77763 64.6129 7.77763C65.9155 7.77763 66.9753 8.82796 66.9753 10.1189Z" fill="white"/>
<path d="M87.4779 5.60586C86.3969 5.60586 85.3754 6.01962 84.6012 6.77092L84.4985 6.87054V0.776611H82.1078V18.8026H84.4985V17.8343L84.6012 17.934C85.3754 18.6854 86.3969 19.0991 87.4779 19.0991C89.7466 19.0991 91.5923 17.2696 91.5923 15.0208V9.684C91.5923 7.43524 89.7466 5.6058 87.4779 5.6058V5.60586ZM89.2326 10.1171V14.5878C89.2326 15.8789 88.1727 16.9293 86.8701 16.9293C85.5675 16.9293 84.508 15.8789 84.508 14.5878V10.1171C84.508 8.82613 85.5679 7.7758 86.8701 7.7758C88.1723 7.7758 89.2326 8.82613 89.2326 10.1171Z" fill="white"/>
<path d="M154.609 0.776611V6.87024L154.506 6.77092C153.731 6.01962 152.71 5.60586 151.629 5.60586C149.361 5.60586 147.515 7.4353 147.515 9.68406L147.515 15.0234L147.513 15.0368C147.515 17.2768 149.361 19.0992 151.629 19.0992C152.71 19.0992 153.731 18.6854 154.506 17.934L154.609 17.8347V18.8027H157V0.776611H154.609ZM154.599 10.1171V14.5878C154.599 15.8789 153.539 16.9293 152.237 16.9293C150.934 16.9293 149.874 15.8789 149.874 14.5878V10.1171C149.874 8.82613 150.934 7.7758 152.237 7.7758C153.539 7.7758 154.599 8.82613 154.599 10.1171Z" fill="white"/>
<path d="M80.394 10.0792C80.3869 9.93617 80.371 9.78547 80.3456 9.61852L80.3333 9.55275C80.2119 8.83723 79.9367 8.17328 79.515 7.57927C78.6687 6.40677 77.3759 5.6912 75.9679 5.61588C75.9315 5.61389 75.7751 5.60693 75.6906 5.60693C74.5755 5.60693 73.4921 5.99319 72.64 6.69432C71.7892 7.39472 71.2074 8.37711 71.0021 9.46087L70.9978 9.48305H73.3382L73.3409 9.468C73.557 8.3762 74.5268 7.5838 75.647 7.5838C76.2572 7.5838 76.8371 7.81634 77.2791 8.23875C77.7201 8.66024 77.9764 9.2241 78.0006 9.82645L78.0037 10.9333H74.612C72.3436 10.9333 70.4985 12.7624 70.4985 15.0107C70.4985 16.9038 71.8087 18.4949 73.5763 18.9518C73.596 18.9571 73.6167 18.9621 73.6371 18.9673C73.7125 18.9855 73.7881 19.003 73.865 19.0171C73.956 19.0341 74.0518 19.0485 74.1513 19.0605C74.1713 19.0627 74.191 19.0658 74.2111 19.0677C74.4062 19.089 74.6144 19.101 74.8314 19.101C75.4004 19.101 75.9108 19.0212 76.2674 18.8947C76.874 18.704 77.4328 18.3759 77.9006 17.9221L78.003 17.8228V18.7908H80.394V17.2146H80.3938L80.394 10.0792ZM75.057 12.7308H77.9705V14.3972C77.9644 15.6629 77.0526 16.7511 75.8021 16.9849C75.616 17.026 75.4423 17.0459 75.2707 17.0459C74.8541 17.0459 74.4477 16.9328 74.0616 16.7092C73.9502 16.651 73.8504 16.5875 73.7562 16.5154C73.614 16.4044 73.493 16.2854 73.3863 16.1513L73.3615 16.1198C73.0734 15.7445 72.9213 15.3049 72.9213 14.8471C72.9213 13.6801 73.8794 12.7308 75.057 12.7308Z" fill="white"/>
<path d="M102.681 10.0913C102.674 9.94819 102.658 9.79756 102.633 9.6306L102.62 9.56483C102.499 8.84926 102.224 8.18537 101.802 7.59129C100.956 6.41886 99.6629 5.70328 98.2549 5.62796C98.2184 5.62597 98.0621 5.61902 97.9775 5.61902C96.8625 5.61902 95.779 6.00528 94.927 6.7064C94.0762 7.40675 93.4944 8.38919 93.2891 9.47295L93.2848 9.49514H95.6252L95.6279 9.48009C95.844 8.38829 96.8137 7.59589 97.934 7.59589C98.5442 7.59589 99.1241 7.82843 99.5661 8.25083C100.007 8.67233 100.263 9.23612 100.288 9.83854L100.291 10.9454H96.8989C94.6306 10.9454 92.7855 12.7745 92.7855 15.0228C92.7855 16.9158 94.0957 18.507 95.8633 18.9638C95.883 18.9692 95.9037 18.9742 95.9241 18.9794C95.9995 18.9976 96.075 19.0151 96.152 19.0292C96.243 19.0461 96.3388 19.0605 96.4383 19.0726C96.4583 19.0748 96.478 19.0778 96.4981 19.0797C96.6932 19.1011 96.9013 19.1131 97.1184 19.1131C97.6873 19.1131 98.1977 19.0333 98.5544 18.9068C99.161 18.7161 99.7197 18.3879 100.188 17.9342L100.29 17.8348V18.8028H102.681V17.2266H102.681L102.681 10.0913ZM97.344 12.7428H100.258V14.4093C100.251 15.675 99.3396 16.7631 98.0891 16.9969C97.903 17.038 97.7293 17.058 97.5576 17.058C97.1411 17.058 96.7347 16.9448 96.3485 16.7212C96.2372 16.663 96.1373 16.5996 96.0432 16.5274C95.901 16.4165 95.78 16.2974 95.6733 16.1633L95.6485 16.1319C95.3604 15.7566 95.2083 15.317 95.2083 14.8592C95.2083 13.6922 96.1664 12.7428 97.344 12.7428Z" fill="white"/>
<path d="M2.48343 32.4907C2.50538 33.038 2.57186 34.0558 4.40481 34.0558C6.0612 34.0558 6.271 33.038 6.271 32.644C6.271 31.7574 5.55331 31.5824 4.43805 31.3086C3.22338 31.0131 2.68224 30.8819 2.2737 30.6082C1.62218 30.1703 1.44532 29.5795 1.44532 29.054C1.44532 27.4452 2.98041 26.7448 4.4822 26.7448C5.01211 26.7448 6.0831 26.8324 6.7237 27.522C7.16548 28.0034 7.18744 28.5397 7.2097 28.8679H6.0612C6.00601 27.8831 5.16671 27.664 4.38285 27.664C3.27857 27.664 2.61607 28.1566 2.61607 28.9446C2.61607 29.6451 3.07982 29.8859 4.05145 30.1156C5.95088 30.5973 6.16061 30.6411 6.62435 30.9475C7.3643 31.4292 7.41949 32.1952 7.41949 32.5237C7.41949 33.9247 6.31521 34.9862 4.27222 34.9862C3.66492 34.9862 2.4283 34.8877 1.79873 34.0888C1.34597 33.5086 1.33499 32.8737 1.33499 32.4909H2.48349L2.48343 32.4907Z" fill="white"/>
<path d="M13.8536 29.0323C13.8097 28.7585 13.6662 27.664 12.1311 27.664C10.2097 27.664 9.86731 29.6122 9.86731 30.9258C9.86731 32.4141 10.2981 34.0229 12.1201 34.0229C12.6061 34.0229 13.0698 33.9026 13.4122 33.5524C13.699 33.246 13.7655 32.9066 13.7984 32.7204H15.0131C14.8475 34.2746 13.4009 34.9204 12.0317 34.9204C9.22708 34.9204 8.68588 32.4687 8.68588 30.9366C8.68588 29.2731 9.3374 26.7886 12.1752 26.7886C13.3015 26.7886 14.8917 27.2373 15.0353 29.0323H13.8536H13.8536Z" fill="white"/>
<path d="M21.2155 29.0323C21.1716 28.7585 21.0281 27.664 19.493 27.664C17.5716 27.664 17.2292 29.6122 17.2292 30.9258C17.2292 32.4141 17.66 34.0229 19.482 34.0229C19.968 34.0229 20.4317 33.9026 20.7741 33.5524C21.0609 33.246 21.1274 32.9066 21.1604 32.7204H22.375C22.2094 34.2746 20.7628 34.9204 19.3936 34.9204C16.589 34.9204 16.0478 32.4687 16.0478 30.9366C16.0478 29.2731 16.6993 26.7886 19.5371 26.7886C20.6634 26.7886 22.2536 27.2373 22.3972 29.0323H21.2155H21.2155Z" fill="white"/>
<path d="M28.5778 29.0323C28.5339 28.7585 28.3904 27.664 26.8553 27.664C24.9339 27.664 24.5915 29.6122 24.5915 30.9258C24.5915 32.4141 25.0223 34.0229 26.8443 34.0229C27.3303 34.0229 27.794 33.9026 28.1364 33.5524C28.4232 33.246 28.4897 32.9066 28.5227 32.7204H29.7373C29.5717 34.2746 28.1251 34.9204 26.7559 34.9204C23.9513 34.9204 23.4101 32.4687 23.4101 30.9366C23.4101 29.2731 24.0616 26.7886 26.8994 26.7886C28.0257 26.7886 29.6159 27.2373 29.7595 29.0323H28.5778H28.5778Z" fill="white"/>
<path d="M34.9114 27.7516C35.7398 26.8651 36.8328 26.6901 37.5727 26.6901C39.7812 26.6901 41.1724 28.091 41.1724 30.7722C41.1724 32.8736 40.3221 34.9862 37.4843 34.9862C34.7678 34.9862 33.8845 33.0706 33.8845 30.9037C33.8845 30.0063 34.0391 28.682 34.9114 27.7516H34.9114ZM35.7508 33.3336C36.2035 33.8917 36.888 34.0558 37.5175 34.0558C38.1691 34.0558 38.8206 33.8808 39.2843 33.3336C39.9358 32.5455 40.002 31.2978 40.002 30.7614C40.002 28.9664 39.4057 27.6093 37.5837 27.6093C35.563 27.6093 35.0441 29.2181 35.0441 30.8381C35.0441 31.7027 35.1987 32.6549 35.7508 33.3336Z" fill="white"/>
<path d="M42.759 30.2032C42.759 29.9624 42.7477 29.8313 42.7258 29.3058H43.7749L43.7968 30.2141C44.3158 29.3496 45.2325 29.2181 45.6853 29.2181C46.8777 29.2181 48.0151 30.0283 48.0151 32.0638C48.0151 34.1105 46.8114 35.008 45.4864 35.008C44.6803 35.008 44.084 34.6687 43.7858 34.1873V36.9123H42.759V30.2032ZM45.3096 34.2528C45.5746 34.2528 46.1267 34.1981 46.4801 33.7164C46.8777 33.1804 46.9329 32.3923 46.9329 31.9982C46.9329 31.0131 46.6347 29.9845 45.4091 29.9845C43.7527 29.9845 43.7527 31.7248 43.7527 32.217C43.7527 32.8849 43.8521 34.2529 45.3097 34.2529L45.3096 34.2528Z" fill="white"/>
<path d="M50.1655 32.239C50.1432 33.3774 50.6183 34.2198 51.7555 34.2198C52.4293 34.2198 52.9701 33.8696 53.0585 33.0818H54.0966C54.0634 33.3552 54.0192 33.804 53.6216 34.231C53.3786 34.5044 52.8265 34.9641 51.7112 34.9641C49.9667 34.9641 49.1383 33.8916 49.1383 32.1514C49.1383 31.0677 49.3593 30.1703 50.2316 29.5683C50.7618 29.1963 51.4243 29.1633 51.7444 29.1633C54.2289 29.1633 54.1737 31.3415 54.1518 32.2389H50.1654L50.1655 32.239ZM53.0918 31.5165C53.1027 30.9913 53.0033 29.8968 51.7225 29.8968C51.0488 29.8968 50.2317 30.3017 50.2097 31.5165H53.0918Z" fill="white"/>
<path d="M55.728 30.4223C55.728 30.05 55.706 29.6668 55.6728 29.3057H56.7219L56.7438 30.3673C56.9426 29.6013 57.6055 29.3496 58.0691 29.284C58.3783 29.2401 58.61 29.251 58.7868 29.2619V30.2688C58.7316 30.247 58.6655 30.2361 58.5881 30.2253C58.5106 30.2141 58.4115 30.2141 58.2899 30.2141C57.0643 30.2141 56.7771 30.9366 56.7771 31.8779V34.8H55.728V30.4222V30.4223Z" fill="white"/>
<path d="M63.3454 34.8001C63.2682 34.5267 63.246 34.2638 63.246 33.9794C62.749 34.8877 61.9981 34.9751 61.5344 34.9751C60.2646 34.9751 59.5801 34.2637 59.5801 33.3554C59.5801 32.9175 59.7347 32.217 60.5518 31.7466C61.1481 31.4181 62.0314 31.3855 62.4732 31.3855C62.7381 31.3855 62.9037 31.3963 63.2241 31.4181C63.2241 30.7397 63.2241 30.4442 63.0253 30.2033C62.8156 29.9298 62.3628 29.8422 62.0647 29.8422C61.0156 29.8422 60.9604 30.5535 60.9494 30.7723H59.9113C59.9445 30.4879 59.9775 30.1048 60.2979 29.7328C60.7174 29.2731 61.5016 29.1417 62.0866 29.1417C62.8927 29.1417 63.754 29.3934 64.0522 29.9516C64.229 30.2801 64.2399 30.5426 64.2399 30.7944L64.1957 33.421C64.1957 33.5087 64.2067 34.2421 64.2842 34.8002H63.3454L63.3454 34.8001ZM62.6277 32.0968C62.2082 32.0968 60.6289 32.0968 60.6289 33.2131C60.6289 33.5633 60.8499 34.1653 61.7774 34.1653C62.3076 34.1653 62.7048 33.9574 62.9592 33.5742C63.1908 33.2022 63.2018 32.8958 63.2241 32.1298C63.0363 32.1077 62.8817 32.0968 62.6278 32.0968H62.6277Z" fill="white"/>
<path d="M65.2531 29.2841H66.236V28.1349L67.2628 27.8064V29.2841H68.4997V30.0393H67.2628V33.3337C67.2628 33.6072 67.2628 34.0668 68.0027 34.0668C68.2125 34.0668 68.4113 34.0342 68.4997 34.0121V34.8111C68.312 34.844 68.0137 34.877 67.6384 34.877C66.6887 34.877 66.236 34.6032 66.236 33.7057V30.0393H65.2531V29.2841Z" fill="white"/>
<path d="M69.6793 26.92H70.9272V28.0472H69.6793V26.92ZM69.7897 29.3058H70.8278V34.8001H69.7897V29.3058Z" fill="white"/>
<path d="M72.8805 29.9407L72.8696 29.3058H73.9074L73.9184 30.1924C74.04 29.9625 74.4376 29.1964 75.6964 29.1964C76.1934 29.1964 77.7062 29.3825 77.7062 31.0679V34.8001H76.6458V31.3087C76.6458 30.9476 76.6019 30.6191 76.3479 30.3674C76.0827 30.1157 75.7184 29.9954 75.365 29.9954C74.6141 29.9954 73.9184 30.5318 73.9184 31.6372V34.8001H72.8805V29.9407Z" fill="white"/>
<path d="M80.5852 35.2271C80.6294 35.8399 80.8943 36.2996 81.8772 36.2996C83.3236 36.2996 83.3459 35.2598 83.3459 33.7712C82.9041 34.6798 81.855 34.7016 81.5239 34.7016C81.0156 34.7016 80.287 34.5922 79.8233 34.0229C79.3483 33.4648 79.1937 32.7317 79.1937 31.9983C79.1937 30.1377 80.298 29.2294 81.6562 29.2294C82.7715 29.2294 83.18 29.7766 83.4011 30.061L83.412 29.3058H84.4169L84.3947 30.3018L84.3837 33.7386C84.3837 35.0627 84.3395 35.5991 84.1187 36.0149C83.655 36.8907 82.5727 37 81.8108 37C79.5913 37 79.5251 35.9711 79.481 35.2271H80.5853H80.5852ZM83.0035 33.3883C83.2242 33.1037 83.3788 32.8082 83.3788 31.8121C83.3788 31.1228 83.2242 30.7288 82.9483 30.4441C82.6721 30.1486 82.2306 29.9624 81.7556 29.9624C80.4416 29.9624 80.265 31.276 80.265 31.9765C80.265 32.819 80.519 33.9355 81.7888 33.9355C82.3961 33.9355 82.7495 33.7164 83.0035 33.3883V33.3883Z" fill="white"/>
<path d="M90.1987 32.4907C90.2206 33.038 90.2871 34.0558 92.12 34.0558C93.7764 34.0558 93.9862 33.038 93.9862 32.644C93.9862 31.7574 93.2685 31.5824 92.1533 31.3086C90.9386 31.0131 90.3975 30.8819 89.9889 30.6082C89.3374 30.1703 89.1606 29.5795 89.1606 29.054C89.1606 27.4452 90.6957 26.7448 92.1974 26.7448C92.7274 26.7448 93.7983 26.8324 94.4389 27.522C94.8807 28.0034 94.9027 28.5397 94.9249 28.8679H93.7764C93.7213 27.8831 92.882 27.664 92.0981 27.664C90.9938 27.664 90.3313 28.1566 90.3313 28.9446C90.3313 29.6451 90.7951 29.8859 91.7667 30.1156C93.6661 30.5973 93.8759 30.6411 94.3396 30.9475C95.0795 31.4292 95.1347 32.1952 95.1347 32.5237C95.1347 33.9247 94.0305 34.9862 91.9875 34.9862C91.3802 34.9862 90.1435 34.8877 89.514 34.0888C89.0612 33.5086 89.0502 32.8737 89.0502 32.4909H90.1987L90.1987 32.4907Z" fill="white"/>
<path d="M99.9237 34.8001C99.8465 34.5267 99.8243 34.2638 99.8243 33.9794C99.3273 34.8877 98.5764 34.9751 98.1127 34.9751C96.8429 34.9751 96.1584 34.2637 96.1584 33.3554C96.1584 32.9175 96.313 32.217 97.1301 31.7466C97.7264 31.4181 98.6097 31.3855 99.0515 31.3855C99.3164 31.3855 99.482 31.3963 99.8024 31.4181C99.8024 30.7397 99.8024 30.4442 99.6036 30.2033C99.3939 29.9298 98.9411 29.8422 98.643 29.8422C97.5939 29.8422 97.5387 30.5535 97.5277 30.7723H96.4896C96.5228 30.4879 96.5558 30.1048 96.8762 29.7328C97.2957 29.2731 98.0799 29.1417 98.6649 29.1417C99.471 29.1417 100.332 29.3934 100.63 29.9516C100.807 30.2801 100.818 30.5426 100.818 30.7944L100.774 33.421C100.774 33.5087 100.785 34.2421 100.862 34.8002H99.9238L99.9237 34.8001ZM99.206 32.0968C98.7865 32.0968 97.2072 32.0968 97.2072 33.2131C97.2072 33.5633 97.4282 34.1653 98.3557 34.1653C98.8859 34.1653 99.2831 33.9574 99.5375 33.5742C99.7691 33.2022 99.7801 32.8958 99.8024 32.1298C99.6146 32.1077 99.46 32.0968 99.2061 32.0968H99.206Z" fill="white"/>
<path d="M103.631 29.3058V32.841C103.631 33.3774 103.753 34.0559 104.813 34.0559C105.332 34.0559 105.818 33.8809 106.116 33.443C106.348 33.1146 106.348 32.6879 106.348 32.4141V29.3058H107.419V33.7712C107.419 33.8809 107.441 34.4937 107.452 34.8001H106.37L106.348 33.8589C106.149 34.242 105.773 34.8548 104.581 34.8548C103.212 34.8548 102.571 34.0779 102.571 32.9943V29.3058H103.631V29.3058Z" fill="white"/>
<path d="M113.268 26.9088H114.306V33.9246C114.306 34.0449 114.328 34.5154 114.351 34.8001H113.313L113.291 33.9246C113.202 34.0779 113.081 34.3075 112.794 34.5045C112.341 34.8109 111.8 34.9094 111.424 34.9094C110.684 34.9094 109.039 34.5266 109.039 32.1185C109.039 30.0283 110.243 29.1196 111.546 29.1196C112.738 29.1196 113.136 29.8201 113.268 30.05V26.9088ZM112.882 30.4441C112.661 30.1594 112.252 29.886 111.667 29.886C110.143 29.886 110.143 31.7136 110.143 32.0859C110.143 33.0598 110.397 34.1873 111.667 34.1873C113.301 34.1873 113.301 32.4032 113.301 31.9765C113.301 31.1775 113.114 30.7397 112.882 30.4441H112.882Z" fill="white"/>
<path d="M116.07 26.92H117.318V28.0472H116.07V26.92ZM116.181 29.3058H117.219V34.8001H116.181V29.3058Z" fill="white"/>
<path d="M122.285 26.8979H125.133C125.542 26.8979 126.381 26.898 126.967 27.2699C127.563 27.6422 127.85 28.2442 127.85 28.879C127.85 29.4372 127.64 29.9297 127.287 30.28C126.944 30.619 126.591 30.7287 126.348 30.7943C127.11 30.9913 127.452 31.3307 127.563 32.3155C127.673 33.2459 127.751 33.9246 128.06 34.8001H126.878C126.701 34.2746 126.591 33.3115 126.514 32.7096C126.381 31.5604 126.105 31.2322 124.769 31.2322H123.378V34.8001H122.285V26.898L122.285 26.8979ZM123.356 30.3017H125.1C125.222 30.3017 125.851 30.3017 126.149 30.1267C126.304 30.0391 126.69 29.7544 126.69 29.0978C126.69 27.8172 125.542 27.8172 125.1 27.8172H123.356V30.3017H123.356Z" fill="white"/>
<path d="M130.078 32.239C130.055 33.3774 130.53 34.2198 131.668 34.2198C132.341 34.2198 132.882 33.8696 132.971 33.0818H134.009C133.976 33.3552 133.931 33.804 133.534 34.231C133.291 34.5044 132.739 34.9641 131.623 34.9641C129.879 34.9641 129.05 33.8916 129.05 32.1514C129.05 31.0677 129.271 30.1703 130.144 29.5683C130.674 29.1963 131.336 29.1633 131.657 29.1633C134.141 29.1633 134.086 31.3415 134.064 32.2389H130.078L130.078 32.239ZM133.004 31.5165C133.015 30.9913 132.915 29.8968 131.635 29.8968C130.961 29.8968 130.144 30.3017 130.122 31.5165H133.004Z" fill="white"/>
<path d="M136.579 35.2271C136.623 35.8399 136.888 36.2996 137.871 36.2996C139.317 36.2996 139.34 35.2598 139.34 33.7712C138.898 34.6798 137.849 34.7016 137.518 34.7016C137.009 34.7016 136.281 34.5922 135.817 34.0229C135.342 33.4648 135.187 32.7317 135.187 31.9983C135.187 30.1377 136.292 29.2294 137.65 29.2294C138.765 29.2294 139.174 29.7766 139.395 30.061L139.406 29.3058H140.411L140.388 30.3018L140.377 33.7386C140.377 35.0627 140.333 35.5991 140.112 36.0149C139.649 36.8907 138.566 37 137.804 37C135.585 37 135.519 35.9711 135.475 35.2271H136.579H136.579ZM138.997 33.3883C139.218 33.1037 139.372 32.8082 139.372 31.8121C139.372 31.1228 139.218 30.7288 138.942 30.4441C138.666 30.1486 138.224 29.9624 137.749 29.9624C136.435 29.9624 136.259 31.276 136.259 31.9765C136.259 32.819 136.513 33.9355 137.782 33.9355C138.39 33.9355 138.743 33.7164 138.997 33.3883V33.3883Z" fill="white"/>
<path d="M142.229 26.92H143.477V28.0472H142.229V26.92ZM142.34 29.3058H143.378V34.8001H142.34V29.3058Z" fill="white"/>
<path d="M147.805 29.1635C150.024 29.1635 150.521 30.8928 150.521 32.0421C150.521 33.6509 149.605 34.9863 147.716 34.9863C145.883 34.9863 144.989 33.7277 144.989 32.1185C144.989 30.7614 145.629 29.1635 147.805 29.1635ZM147.738 34.2199C148.522 34.2199 149.417 33.6618 149.417 32.0091C149.417 30.6411 148.776 29.9186 147.805 29.9186C147.142 29.9186 146.071 30.3347 146.071 32.0529C146.071 33.1804 146.557 34.2199 147.738 34.2199Z" fill="white"/>
<path d="M152.174 29.9407L152.163 29.3058H153.201L153.212 30.1924C153.334 29.9625 153.731 29.1964 154.99 29.1964C155.487 29.1964 157 29.3825 157 31.0679V34.8001H155.94V31.3087C155.94 30.9476 155.896 30.6191 155.642 30.3674C155.377 30.1157 155.012 29.9954 154.659 29.9954C153.908 29.9954 153.212 30.5318 153.212 31.6372V34.8001H152.174V29.9407Z" fill="white"/>
</g>
<defs>
<clipPath id="clip0_952_577">
<rect width="157" height="37" fill="white"/>
</clipPath>
</defs>
</svg>
