<svg width="144" height="34" viewBox="0 0 144 34" fill="none" xmlns="http://www.w3.org/2000/svg">
<g clip-path="url(#clip0_952_384)">
<path d="M19.3946 7.87451H9.70111V10.0448H19.3946V7.87451Z" fill="black"/>
<path d="M24.2507 0H17.8368L19.3848 2.17485L24.0607 3.5975C24.9271 3.86973 25.4789 4.66765 25.4728 5.52517C25.4728 5.52701 25.4731 5.52878 25.4731 5.53056V12.4846C25.4731 12.4863 25.4728 12.4882 25.4728 12.49C25.4789 13.3475 24.9271 14.1454 24.0607 14.4177L19.3848 15.8403L17.8368 18.0152H24.2507C26.9262 18.0152 29.0953 15.8612 29.0953 13.2044V4.81068C29.0953 2.15386 26.9262 0 24.2507 0Z" fill="black"/>
<path d="M4.84462 0H11.2585L9.71055 2.17485L5.03464 3.5975C4.16823 3.86973 3.61642 4.66765 3.6224 5.52517C3.6224 5.52701 3.62212 5.52878 3.62212 5.53056V12.4846C3.62212 12.4863 3.6224 12.4882 3.6224 12.49C3.61642 13.3475 4.16823 14.1454 5.03464 14.4177L9.71055 15.8403L11.2585 18.0152H4.84462C2.169 18.0152 0 15.8612 0 13.2044V4.81068C0 2.15386 2.169 0 4.84462 0Z" fill="black"/>
<path d="M107.63 12.5792C107.63 14.1348 106.341 15.4005 104.757 15.4005C103.173 15.4005 101.884 14.1348 101.884 12.5792V5.69188C101.884 4.13614 103.173 2.87047 104.757 2.87047C106.342 2.87047 107.63 4.13614 107.63 5.69188V5.77631H109.829V5.69188C109.829 2.9464 107.554 0.712891 104.757 0.712891C101.961 0.712891 99.6861 2.9464 99.6861 5.69188V12.5725C99.6861 15.3178 101.961 17.5513 104.757 17.5513C107.55 17.5513 109.825 15.3207 109.828 12.579L109.829 12.4879H107.63V12.5792V12.5792Z" fill="black"/>
<path d="M119.056 5.16357C116.725 5.16357 114.811 6.95699 114.697 9.24716V13.4666C114.811 15.7571 116.725 17.5514 119.056 17.5514C121.387 17.5514 123.301 15.7556 123.414 13.4622V9.24283C123.301 6.95544 121.387 5.16357 119.056 5.16357ZM121.211 13.2209C121.19 14.4226 120.244 15.364 119.056 15.364C117.869 15.364 116.922 14.4232 116.901 13.2224V9.49378C116.901 8.31226 117.868 7.35098 119.056 7.35098C120.245 7.35098 121.211 8.31226 121.211 9.49378V13.2209Z" fill="black"/>
<path d="M113.115 0.713867H110.923V17.2783H113.115V0.713867Z" fill="black"/>
<path d="M52.7067 5.16357H50.5146V17.2783H52.7067V5.16357Z" fill="black"/>
<path d="M48.3264 0.713867H46.1343V17.2783H48.3264V0.713867Z" fill="black"/>
<path d="M40.6052 0.713867H37.9076L33.4775 17.2567L33.4716 17.2783H35.6603L36.837 12.8835L41.6796 12.898L42.8493 17.2657L42.8526 17.2783H45.0412L40.6085 0.726587L40.6052 0.713867ZM41.0982 10.7278H37.4142L39.2564 3.84933L41.0982 10.7278Z" fill="black"/>
<path d="M131.513 13.4491C131.513 14.6324 130.544 15.5951 129.352 15.5951C128.161 15.5951 127.191 14.6324 127.191 13.4491V5.16357H124.998V13.8043C124.998 15.8702 126.691 17.5508 128.772 17.5508C129.154 17.5508 129.532 17.4939 129.895 17.3818C130.107 17.319 130.31 17.2351 130.499 17.1325C130.836 16.9596 131.142 16.7402 131.409 16.4804L131.503 16.3888V17.2783H133.714V5.16357H131.513V13.4491V13.4491Z" fill="black"/>
<path d="M52.7067 0.713867H50.5146V2.89116H52.7067V0.713867Z" fill="black"/>
<path d="M59.8202 5.15302C58.829 5.15302 57.8918 5.53324 57.1814 6.22362L57.0872 6.31499V0.715332H54.8948V17.2798H57.0872V16.3902L57.1814 16.4815C57.8918 17.172 58.8287 17.5522 59.8202 17.5522C61.901 17.5522 63.5939 15.871 63.5939 13.8046V8.9005C63.5939 6.83407 61.901 5.15297 59.8202 5.15297V5.15302ZM61.4296 9.29848V13.4067C61.4296 14.5931 60.4575 15.5583 59.2628 15.5583C58.068 15.5583 57.0959 14.5931 57.0959 13.4067V9.29848C57.0959 8.11219 58.068 7.14702 59.2628 7.14702C60.4575 7.14702 61.4296 8.11219 61.4296 9.29848Z" fill="black"/>
<path d="M80.2345 5.15156C79.243 5.15156 78.3061 5.53177 77.5959 6.22215L77.5017 6.31369V0.713867H75.3091V17.2783H77.5017V16.3885L77.5959 16.4801C78.3061 17.1706 79.243 17.5508 80.2345 17.5508C82.3153 17.5508 84.0082 15.8696 84.0082 13.8031V8.89903C84.0082 6.8326 82.3153 5.1515 80.2345 5.1515V5.15156ZM81.8439 9.29702V13.4053C81.8439 14.5917 80.8718 15.5568 79.677 15.5568C78.4823 15.5568 77.5105 14.5917 77.5105 13.4053V9.29702C77.5105 8.11072 78.4826 7.14555 79.677 7.14555C80.8714 7.14555 81.8439 8.11072 81.8439 9.29702Z" fill="black"/>
<path d="M141.807 0.713867V6.31342L141.713 6.22215C141.002 5.53177 140.065 5.15156 139.074 5.15156C136.993 5.15156 135.3 6.83266 135.3 8.89909L135.301 13.8055L135.299 13.8179C135.3 15.8762 136.994 17.5508 139.074 17.5508C140.065 17.5508 141.002 17.1706 141.713 16.4801L141.807 16.3889V17.2784H144V0.713867H141.807ZM141.798 9.29702V13.4053C141.798 14.5917 140.826 15.5568 139.631 15.5568C138.436 15.5568 137.464 14.5917 137.464 13.4053V9.29702C137.464 8.11072 138.436 7.14555 139.631 7.14555C140.826 7.14555 141.798 8.11072 141.798 9.29702Z" fill="black"/>
<path d="M73.7372 9.26203C73.7307 9.13056 73.7161 8.99208 73.6928 8.83866L73.6815 8.77823C73.5702 8.12073 73.3177 7.51061 72.9309 6.96476C72.1547 5.88733 70.969 5.22978 69.6776 5.16056C69.6441 5.15873 69.5008 5.15234 69.4232 5.15234C68.4005 5.15234 67.4067 5.50728 66.6252 6.15156C65.8449 6.79518 65.3113 7.69791 65.1229 8.6938L65.119 8.71418H67.2656L67.2681 8.70035C67.4663 7.69708 68.3557 6.96892 69.3832 6.96892C69.9429 6.96892 70.4748 7.18261 70.8802 7.57077C71.2847 7.95809 71.5197 8.47622 71.542 9.02974L71.5447 10.0468H68.4339C66.3534 10.0468 64.6611 11.7276 64.6611 13.7937C64.6611 15.5332 65.8628 16.9953 67.484 17.4151C67.5021 17.4201 67.5211 17.4247 67.5397 17.4294C67.6089 17.4462 67.6782 17.4623 67.7488 17.4752C67.8323 17.4908 67.9201 17.504 68.0114 17.5151C68.0297 17.5171 68.0478 17.5199 68.0662 17.5217C68.2452 17.5412 68.4361 17.5523 68.6352 17.5523C69.157 17.5523 69.6252 17.479 69.9523 17.3627C70.5086 17.1875 71.0212 16.886 71.4503 16.469L71.5442 16.3777V17.2672H73.7372V15.8189H73.737L73.7372 9.26203ZM68.8421 11.6986H71.5144V13.2299C71.5088 14.393 70.6724 15.3929 69.5255 15.6077C69.3548 15.6456 69.1955 15.6638 69.0381 15.6638C68.656 15.6638 68.2833 15.5599 67.9291 15.3544C67.827 15.301 67.7353 15.2426 67.649 15.1763C67.5186 15.0744 67.4076 14.965 67.3097 14.8418L67.287 14.8128C67.0227 14.4679 66.8833 14.064 66.8833 13.6433C66.8833 12.571 67.762 11.6986 68.8421 11.6986Z" fill="black"/>
<path d="M94.1787 9.27327C94.1723 9.14173 94.1576 9.00331 94.1343 8.84989L94.1231 8.78946C94.0117 8.1319 93.7593 7.52184 93.3725 6.97593C92.5963 5.89856 91.4106 5.24101 90.1192 5.1718C90.0857 5.16996 89.9424 5.16357 89.8647 5.16357C88.842 5.16357 87.8483 5.51851 87.0668 6.16279C86.2864 6.80635 85.7529 7.70914 85.5645 8.70503L85.5606 8.72541H87.7072L87.7097 8.71158C87.9079 7.70831 88.7973 6.98015 89.8248 6.98015C90.3845 6.98015 90.9164 7.19384 91.3218 7.582C91.7263 7.96932 91.9613 8.4874 91.9835 9.04097L91.9863 10.0581H88.8755C86.795 10.0581 85.1027 11.7388 85.1027 13.8049C85.1027 15.5444 86.3044 17.0066 87.9256 17.4264C87.9437 17.4313 87.9626 17.4359 87.9813 17.4407C88.0505 17.4574 88.1198 17.4735 88.1904 17.4864C88.2738 17.502 88.3617 17.5152 88.453 17.5263C88.4713 17.5284 88.4894 17.5311 88.5078 17.5329C88.6868 17.5525 88.8777 17.5635 89.0768 17.5635C89.5986 17.5635 90.0667 17.4902 90.3939 17.3739C90.9502 17.1987 91.4627 16.8971 91.8919 16.4802L91.9858 16.3889V17.2784H94.1787V15.83H94.1786L94.1787 9.27327ZM89.2837 11.7098H91.956V13.2411C91.9503 14.4042 91.114 15.4041 89.9671 15.619C89.7964 15.6567 89.6371 15.6751 89.4796 15.6751C89.0976 15.6751 88.7248 15.5711 88.3706 15.3656C88.2686 15.3121 88.1769 15.2538 88.0906 15.1875C87.9602 15.0856 87.8492 14.9762 87.7513 14.8529L87.7286 14.824C87.4643 14.4792 87.3249 14.0752 87.3249 13.6545C87.3249 12.5821 88.2036 11.7098 89.2837 11.7098Z" fill="black"/>
<path d="M2.2778 29.8563C2.29794 30.3591 2.35891 31.2944 4.04008 31.2944C5.55932 31.2944 5.75175 30.3592 5.75175 29.9971C5.75175 29.1824 5.09348 29.0216 4.07057 28.77C2.95648 28.4984 2.46015 28.3779 2.08543 28.1263C1.48786 27.724 1.32565 27.1811 1.32565 26.6982C1.32565 25.2198 2.73363 24.5762 4.11107 24.5762C4.5971 24.5762 5.57941 24.6567 6.16697 25.2904C6.57217 25.7328 6.59231 26.2256 6.61272 26.5272H5.55932C5.5087 25.6222 4.7389 25.4209 4.01995 25.4209C3.0071 25.4209 2.39946 25.8735 2.39946 26.5977C2.39946 27.2413 2.8248 27.4626 3.71599 27.6737C5.45814 28.1163 5.6505 28.1566 6.07584 28.4382C6.75452 28.8808 6.80515 29.5847 6.80515 29.8866C6.80515 31.1739 5.7923 32.1494 3.91848 32.1494C3.36146 32.1494 2.22723 32.0589 1.6498 31.3247C1.23453 30.7916 1.22446 30.2082 1.22446 29.8564H2.27786L2.2778 29.8563Z" fill="black"/>
<path d="M12.7065 26.678C12.6662 26.4265 12.5346 25.4207 11.1266 25.4207C9.36431 25.4207 9.05028 27.2109 9.05028 28.418C9.05028 29.7856 9.44542 31.264 11.1165 31.264C11.5623 31.264 11.9876 31.1534 12.3016 30.8316C12.5647 30.55 12.6257 30.2382 12.6559 30.0671H13.77C13.6181 31.4953 12.2913 32.0887 11.0354 32.0887C8.46306 32.0887 7.96667 29.8358 7.96667 28.428C7.96667 26.8993 8.56425 24.6162 11.1671 24.6162C12.2001 24.6162 13.6586 25.0286 13.7904 26.678H12.7065H12.7065Z" fill="black"/>
<path d="M19.4589 26.678C19.4186 26.4265 19.2869 25.4207 17.8789 25.4207C16.1167 25.4207 15.8026 27.2109 15.8026 28.418C15.8026 29.7856 16.1978 31.264 17.8689 31.264C18.3146 31.264 18.7399 31.1534 19.0539 30.8316C19.3171 30.55 19.378 30.2382 19.4083 30.0671H20.5223C20.3705 31.4953 19.0437 32.0887 17.7878 32.0887C15.2154 32.0887 14.719 29.8358 14.719 28.428C14.719 26.8993 15.3166 24.6162 17.9194 24.6162C18.9524 24.6162 20.411 25.0286 20.5427 26.678H19.4588H19.4589Z" fill="black"/>
<path d="M26.2115 26.678C26.1713 26.4265 26.0396 25.4207 24.6316 25.4207C22.8693 25.4207 22.5553 27.2109 22.5553 28.418C22.5553 29.7856 22.9504 31.264 24.6215 31.264C25.0673 31.264 25.4926 31.1534 25.8066 30.8316C26.0697 30.55 26.1307 30.2382 26.1609 30.0671H27.275C27.1231 31.4953 25.7963 32.0887 24.5404 32.0887C21.9681 32.0887 21.4717 29.8358 21.4717 28.428C21.4717 26.8993 22.0693 24.6162 24.6721 24.6162C25.7051 24.6162 27.1636 25.0286 27.2954 26.678H26.2115H26.2115Z" fill="black"/>
<path d="M32.0207 25.5014C32.7804 24.6867 33.7829 24.5259 34.4616 24.5259C36.4873 24.5259 37.7632 25.8132 37.7632 28.2771C37.7632 30.2081 36.9833 32.1494 34.3805 32.1494C31.8889 32.1494 31.0788 30.3891 31.0788 28.3979C31.0788 27.5732 31.2206 26.3563 32.0206 25.5014H32.0207ZM32.7905 30.6307C33.2058 31.1436 33.8336 31.2944 34.411 31.2944C35.0086 31.2944 35.6061 31.1336 36.0315 30.6307C36.6291 29.9065 36.6897 28.76 36.6897 28.2671C36.6897 26.6176 36.1428 25.3706 34.4717 25.3706C32.6183 25.3706 32.1423 26.8489 32.1423 28.3376C32.1423 29.1321 32.2841 30.0071 32.7905 30.6307Z" fill="black"/>
<path d="M39.2184 27.7544C39.2184 27.5331 39.2081 27.4125 39.1879 26.9297H40.1501L40.1703 27.7644C40.6463 26.9699 41.4871 26.8491 41.9024 26.8491C42.996 26.8491 44.0393 27.5936 44.0393 29.4641C44.0393 31.3448 42.9353 32.1696 41.72 32.1696C40.9806 32.1696 40.4337 31.8577 40.1602 31.4153V33.9195H39.2184V27.7544ZM41.5579 31.4756C41.8008 31.4756 42.3073 31.4253 42.6314 30.9827C42.996 30.4901 43.0467 29.7659 43.0467 29.4038C43.0467 28.4986 42.7732 27.5533 41.649 27.5533C40.1298 27.5533 40.1298 29.1525 40.1298 29.6049C40.1298 30.2185 40.221 31.4756 41.5579 31.4756L41.5579 31.4756Z" fill="black"/>
<path d="M46.0117 29.6251C45.9912 30.6712 46.4269 31.4453 47.47 31.4453C48.088 31.4453 48.5841 31.1235 48.6651 30.3996H49.6173C49.5868 30.6508 49.5462 31.0632 49.1816 31.4556C48.9587 31.7069 48.4523 32.1293 47.4294 32.1293C45.8293 32.1293 45.0695 31.1438 45.0695 29.5446C45.0695 28.5488 45.2722 27.7241 46.0723 27.1709C46.5586 26.8291 47.1662 26.7988 47.4599 26.7988C49.7386 26.7988 49.688 28.8004 49.6678 29.6251H46.0116L46.0117 29.6251ZM48.6956 28.9612C48.7057 28.4785 48.6145 27.4728 47.4398 27.4728C46.8218 27.4728 46.0724 27.8449 46.0522 28.9612H48.6956Z" fill="black"/>
<path d="M51.1136 27.9556C51.1136 27.6135 51.0935 27.2614 51.063 26.9296H52.0252L52.0453 27.9051C52.2276 27.2011 52.8356 26.9698 53.2609 26.9096C53.5445 26.8693 53.757 26.8793 53.9192 26.8893V27.8145C53.8685 27.7945 53.8079 27.7845 53.7369 27.7745C53.6658 27.7643 53.5749 27.7643 53.4634 27.7643C52.3392 27.7643 52.0758 28.4282 52.0758 29.2932V31.9784H51.1136V27.9556V27.9556Z" fill="black"/>
<path d="M58.1003 31.9784C58.0295 31.7271 58.0091 31.4856 58.0091 31.2242C57.5533 32.0589 56.8646 32.1392 56.4392 32.1392C55.2746 32.1392 54.6468 31.4855 54.6468 30.6508C54.6468 30.2484 54.7886 29.6048 55.538 29.1725C56.0849 28.8706 56.8951 28.8406 57.3003 28.8406C57.5432 28.8406 57.6951 28.8506 57.989 28.8706C57.989 28.2472 57.989 27.9757 57.8067 27.7543C57.6143 27.503 57.1991 27.4225 56.9256 27.4225C55.9634 27.4225 55.9127 28.0761 55.9027 28.2772H54.9505C54.981 28.0159 55.0112 27.6638 55.3051 27.3219C55.6899 26.8996 56.4091 26.7788 56.9457 26.7788C57.6851 26.7788 58.475 27.0101 58.7485 27.523C58.9107 27.8249 58.9207 28.0661 58.9207 28.2975L58.8802 30.7111C58.8802 30.7917 58.8903 31.4656 58.9613 31.9785H58.1003L58.1003 31.9784ZM57.442 29.4943C57.0572 29.4943 55.6087 29.4943 55.6087 30.5201C55.6087 30.8419 55.8114 31.395 56.6621 31.395C57.1484 31.395 57.5128 31.204 57.746 30.8519C57.9585 30.5101 57.9686 30.2285 57.989 29.5246C57.8168 29.5043 57.675 29.4943 57.4421 29.4943H57.442Z" fill="black"/>
<path d="M59.8499 26.9096H60.7514V25.8536L61.6932 25.5518V26.9096H62.8278V27.6036H61.6932V30.6309C61.6932 30.8822 61.6933 31.3046 62.3719 31.3046C62.5643 31.3046 62.7467 31.2746 62.8278 31.2543V31.9885C62.6555 32.0188 62.382 32.049 62.0378 32.049C61.1667 32.049 60.7514 31.7975 60.7514 30.9727V27.6036H59.8499V26.9096Z" fill="black"/>
<path d="M63.9097 24.7373H65.0542V25.7731H63.9097V24.7373ZM64.011 26.9296H64.9631V31.9784H64.011V26.9296Z" fill="black"/>
<path d="M66.8458 27.513L66.8358 26.9296H67.7876L67.7977 27.7443C67.9093 27.533 68.2739 26.8291 69.4285 26.8291C69.8844 26.8291 71.2719 27.0001 71.2719 28.5488V31.9784H70.2993V28.7701C70.2993 28.4383 70.259 28.1364 70.0261 27.9051C69.7828 27.6738 69.4487 27.5633 69.1246 27.5633C68.4358 27.5633 67.7977 28.0562 67.7977 29.0719V31.9784H66.8458V27.513Z" fill="black"/>
<path d="M73.9125 32.3708C73.9531 32.934 74.1961 33.3563 75.0976 33.3563C76.4242 33.3563 76.4446 32.4008 76.4446 31.0329C76.0394 31.8679 75.0772 31.8879 74.7735 31.8879C74.3073 31.8879 73.639 31.7874 73.2137 31.2642C72.778 30.7514 72.6363 30.0777 72.6363 29.4038C72.6363 27.6941 73.6491 26.8594 74.8949 26.8594C75.9178 26.8594 76.2925 27.3622 76.4952 27.6236L76.5053 26.9296H77.427L77.4066 27.8449L77.3965 31.0029C77.3965 32.2197 77.3559 32.7127 77.1535 33.0948C76.7282 33.8995 75.7355 34 75.0367 34C73.0009 34 72.9402 33.0545 72.8997 32.3708H73.9126H73.9125ZM76.1306 30.6811C76.333 30.4195 76.4748 30.148 76.4748 29.2327C76.4748 28.5993 76.333 28.2372 76.08 27.9756C75.8266 27.7041 75.4217 27.533 74.986 27.533C73.7808 27.533 73.6189 28.7401 73.6189 29.3837C73.6189 30.1579 73.8518 31.1839 75.0165 31.1839C75.5735 31.1839 75.8976 30.9826 76.1306 30.6811V30.6811Z" fill="black"/>
<path d="M82.73 29.8563C82.7501 30.3591 82.8111 31.2944 84.4923 31.2944C86.0115 31.2944 86.2039 30.3592 86.2039 29.9971C86.2039 29.1824 85.5457 29.0216 84.5228 28.77C83.4087 28.4984 82.9123 28.3779 82.5376 28.1263C81.94 27.724 81.7778 27.1811 81.7778 26.6982C81.7778 25.2198 83.1858 24.5762 84.5633 24.5762C85.0493 24.5762 86.0316 24.6567 86.6191 25.2904C87.0244 25.7328 87.0445 26.2256 87.0649 26.5272H86.0115C85.9609 25.6222 85.1911 25.4209 84.4721 25.4209C83.4593 25.4209 82.8516 25.8735 82.8516 26.5977C82.8516 27.2413 83.277 27.4626 84.1682 27.6737C85.9103 28.1163 86.1027 28.1566 86.528 28.4382C87.2067 28.8808 87.2573 29.5847 87.2573 29.8866C87.2573 31.1739 86.2445 32.1494 84.3707 32.1494C83.8136 32.1494 82.6794 32.0589 82.102 31.3247C81.6867 30.7916 81.6766 30.2082 81.6766 29.8564H82.73L82.73 29.8563Z" fill="black"/>
<path d="M91.6498 31.9784C91.579 31.7271 91.5586 31.4856 91.5586 31.2242C91.1028 32.0589 90.4141 32.1392 89.9887 32.1392C88.8241 32.1392 88.1963 31.4855 88.1963 30.6508C88.1963 30.2484 88.3381 29.6048 89.0875 29.1725C89.6344 28.8706 90.4446 28.8406 90.8498 28.8406C91.0927 28.8406 91.2446 28.8506 91.5385 28.8706C91.5385 28.2472 91.5385 27.9757 91.3562 27.7543C91.1638 27.503 90.7486 27.4225 90.4751 27.4225C89.5129 27.4225 89.4622 28.0761 89.4522 28.2772H88.5C88.5305 28.0159 88.5607 27.6638 88.8546 27.3219C89.2394 26.8996 89.9586 26.7788 90.4952 26.7788C91.2346 26.7788 92.0245 27.0101 92.298 27.523C92.4602 27.8249 92.4702 28.0661 92.4702 28.2975L92.4297 30.7111C92.4297 30.7917 92.4398 31.4656 92.5108 31.9785H91.6498L91.6498 31.9784ZM90.9915 29.4943C90.6067 29.4943 89.1582 29.4943 89.1582 30.5201C89.1582 30.8419 89.3609 31.395 90.2116 31.395C90.6979 31.395 91.0623 31.204 91.2955 30.8519C91.508 30.5101 91.5181 30.2285 91.5385 29.5246C91.3663 29.5043 91.2245 29.4943 90.9916 29.4943H90.9915Z" fill="black"/>
<path d="M95.0504 26.9297V30.1783C95.0504 30.6712 95.1617 31.2946 96.134 31.2946C96.6103 31.2946 97.0557 31.1338 97.3292 30.7315C97.5419 30.4296 97.5419 30.0375 97.5419 29.786V26.9297H98.5243V31.033C98.5243 31.1339 98.5447 31.697 98.5548 31.9786H97.5621L97.5419 31.1136C97.3596 31.4657 97.0151 32.0288 95.9215 32.0288C94.6656 32.0288 94.0781 31.3149 94.0781 30.3191V26.9297H95.0504V26.9297Z" fill="black"/>
<path d="M103.889 24.7271H104.842V31.174C104.842 31.2845 104.862 31.7169 104.882 31.9785H103.93L103.91 31.174C103.829 31.3148 103.717 31.5258 103.454 31.7069C103.039 31.9884 102.542 32.079 102.198 32.079C101.519 32.079 100.011 31.7271 100.011 29.5143C100.011 27.5936 101.114 26.7586 102.309 26.7586C103.403 26.7586 103.768 27.4023 103.889 27.6136V24.7271ZM103.535 27.9757C103.332 27.7141 102.958 27.4628 102.421 27.4628C101.023 27.4628 101.023 29.1422 101.023 29.4844C101.023 30.3793 101.256 31.4154 102.421 31.4154C103.92 31.4154 103.92 29.7759 103.92 29.3838C103.92 28.6496 103.748 28.2473 103.535 27.9757H103.535Z" fill="black"/>
<path d="M106.459 24.7373H107.604V25.7731H106.459V24.7373ZM106.561 26.9296H107.513V31.9784H106.561V26.9296Z" fill="black"/>
<path d="M112.159 24.7168H114.772C115.147 24.7168 115.916 24.7168 116.453 25.0586C117 25.4007 117.264 25.9539 117.264 26.5373C117.264 27.0501 117.071 27.5028 116.747 27.8246C116.433 28.1362 116.109 28.237 115.886 28.2972C116.585 28.4783 116.899 28.7901 117 29.6951C117.102 30.5501 117.172 31.1738 117.456 31.9782H116.372C116.21 31.4953 116.109 30.6104 116.038 30.0572C115.917 29.0012 115.664 28.6996 114.438 28.6996H113.162V31.9782H112.159V24.7169L112.159 24.7168ZM113.141 27.8446H114.742C114.853 27.8446 115.43 27.8446 115.704 27.6838C115.846 27.6033 116.2 27.3417 116.2 26.7383C116.2 25.5615 115.147 25.5615 114.742 25.5615H113.141V27.8446H113.141Z" fill="black"/>
<path d="M119.307 29.6251C119.286 30.6712 119.722 31.4453 120.765 31.4453C121.383 31.4453 121.879 31.1235 121.96 30.3996H122.912C122.882 30.6508 122.841 31.0632 122.477 31.4556C122.254 31.7069 121.747 32.1293 120.725 32.1293C119.124 32.1293 118.365 31.1438 118.365 29.5446C118.365 28.5488 118.567 27.7241 119.367 27.1709C119.854 26.8291 120.461 26.7988 120.755 26.7988C123.034 26.7988 122.983 28.8004 122.963 29.6251H119.307L119.307 29.6251ZM121.991 28.9612C122.001 28.4785 121.91 27.4728 120.735 27.4728C120.117 27.4728 119.368 27.8449 119.347 28.9612H121.991Z" fill="black"/>
<path d="M125.27 32.3708C125.31 32.934 125.553 33.3563 126.455 33.3563C127.781 33.3563 127.802 32.4008 127.802 31.0329C127.397 31.8679 126.434 31.8879 126.131 31.8879C125.665 31.8879 124.996 31.7874 124.571 31.2642C124.135 30.7514 123.994 30.0777 123.994 29.4038C123.994 27.6941 125.006 26.8594 126.252 26.8594C127.275 26.8594 127.65 27.3622 127.852 27.6236L127.863 26.9296H128.784L128.764 27.8449L128.754 31.0029C128.754 32.2197 128.713 32.7127 128.511 33.0948C128.085 33.8995 127.093 34 126.394 34C124.358 34 124.297 33.0545 124.257 32.3708H125.27H125.27ZM127.488 30.6811C127.69 30.4195 127.832 30.148 127.832 29.2327C127.832 28.5993 127.69 28.2372 127.437 27.9756C127.184 27.7041 126.779 27.533 126.343 27.533C125.138 27.533 124.976 28.7401 124.976 29.3837C124.976 30.1579 125.209 31.1839 126.374 31.1839C126.931 31.1839 127.255 30.9826 127.488 30.6811V30.6811Z" fill="black"/>
<path d="M130.452 24.7373H131.597V25.7731H130.452V24.7373ZM130.554 26.9296H131.506V31.9784H130.554V26.9296Z" fill="black"/>
<path d="M135.566 26.7988C137.602 26.7988 138.058 28.388 138.058 29.444C138.058 30.9224 137.217 32.1495 135.485 32.1495C133.804 32.1495 132.983 30.993 132.983 29.5143C132.983 28.2672 133.571 26.7988 135.566 26.7988ZM135.505 31.4453C136.224 31.4453 137.045 30.9325 137.045 29.4138C137.045 28.1567 136.457 27.4928 135.566 27.4928C134.958 27.4928 133.976 27.8751 133.976 29.454C133.976 30.4901 134.421 31.4453 135.505 31.4453Z" fill="black"/>
<path d="M139.574 27.513L139.564 26.9296H140.516L140.526 27.7443C140.637 27.533 141.002 26.8291 142.157 26.8291C142.613 26.8291 144 27.0001 144 28.5488V31.9784H143.027V28.7701C143.027 28.4383 142.987 28.1364 142.754 27.9051C142.511 27.6738 142.177 27.5633 141.853 27.5633C141.164 27.5633 140.526 28.0562 140.526 29.0719V31.9784H139.574V27.513Z" fill="black"/>
</g>
<defs>
<clipPath id="clip0_952_384">
<rect width="144" height="34" fill="white"/>
</clipPath>
</defs>
</svg>
