<svg width="144" height="19" viewBox="0 0 144 19" fill="none" xmlns="http://www.w3.org/2000/svg">
<rect x="9.69995" y="8.43457" width="9.69998" height="2.17714" fill="black"/>
<path d="M24.2381 0.50003H17.8279L19.376 2.70132L24.0688 4.12857C24.9157 4.38852 25.488 5.17801 25.4717 6.06381V13.0791C25.4753 13.9608 24.9079 14.7436 24.0687 15.0143L19.4002 16.4416L17.8279 18.6429H24.2381C26.91 18.6429 29.076 16.4768 29.076 13.8048V5.3381C29.0805 4.05362 28.5723 2.8204 27.664 1.91208C26.7557 1.00375 25.5226 0.495513 24.2381 0.50003Z" fill="black"/>
<path d="M4.83789 0.5H11.2481L9.69998 2.70129L5.0314 4.1286C4.18446 4.38849 3.61211 5.17798 3.62842 6.06378V13.079C3.6248 13.9608 4.19226 14.7435 5.0314 15.0143L9.69998 16.4415L11.2481 18.6428H4.83789C2.1693 18.6349 0.00796509 16.4734 0 13.8047V5.33807C0.00796509 2.66937 2.1693 0.507935 4.83789 0.5Z" fill="black"/>
<path d="M107.62 13.1754C107.62 14.7652 106.331 16.054 104.741 16.054C103.151 16.054 101.862 14.7652 101.862 13.1754V6.23268C101.866 5.47481 102.172 4.74977 102.713 4.21846C103.253 3.68709 103.983 3.39339 104.741 3.40242C106.313 3.40089 107.594 4.66121 107.62 6.23268V6.30525H109.821V6.20851C109.814 3.40291 107.534 1.13393 104.729 1.14064C101.923 1.14729 99.6544 3.42708 99.6611 6.23268V13.1511C99.6611 15.9568 101.935 18.2312 104.741 18.2312C107.546 18.2312 109.821 15.9568 109.821 13.1511V13.0786H107.62V13.1754Z" fill="black"/>
<path fill-rule="evenodd" clip-rule="evenodd" d="M119.036 5.70114C116.719 5.68896 114.802 7.49975 114.682 9.8135V14.071C114.682 16.4758 116.631 18.4253 119.036 18.4253C121.441 18.4253 123.39 16.4758 123.39 14.071V9.8135C123.279 7.49581 121.356 5.68023 119.036 5.70111M121.189 13.8046C121.189 14.9936 120.225 15.9575 119.036 15.9575C117.847 15.9575 116.883 14.9936 116.883 13.8046L116.883 10.055C116.883 8.866 117.847 7.9021 119.036 7.9021C120.225 7.9021 121.189 8.866 121.189 10.055V13.8046Z" fill="black"/>
<rect x="110.909" y="1.22583" width="2.20124" height="16.6914" fill="black"/>
<rect x="50.5076" y="5.70093" width="2.20124" height="12.192" fill="black"/>
<rect x="46.1294" y="1.22583" width="2.20124" height="16.6914" fill="black"/>
<path fill-rule="evenodd" clip-rule="evenodd" d="M40.5897 1.22559H37.9047L33.478 17.8928V17.917H35.6551L36.8404 13.4901L41.6783 13.5143L42.8394 17.917V17.9412H45.0164L40.5897 1.22559ZM41.0977 11.313H37.4209L39.2593 4.39453L41.0977 11.313Z" fill="black"/>
<path d="M131.494 14.0466C131.494 15.2357 130.53 16.1996 129.341 16.1996C128.152 16.1996 127.188 15.2357 127.188 14.0466L127.188 5.70093H124.975V14.4095C124.978 16.4925 126.666 18.1805 128.749 18.1832C129.126 18.188 129.502 18.1309 129.861 18.0139C130.068 17.9479 130.271 17.8671 130.466 17.772C130.806 17.6049 131.116 17.3844 131.385 17.1188L131.482 17.022V17.9171H133.683V5.70093H131.482V14.0466H131.494Z" fill="black"/>
<rect x="50.5076" y="1.22583" width="2.20124" height="2.20133" fill="black"/>
<path fill-rule="evenodd" clip-rule="evenodd" d="M59.8209 5.70081C58.8322 5.69843 57.8833 6.09015 57.1842 6.78937L57.0875 6.88611V1.22559H54.8862V17.917H57.0875V17.0219L57.1842 17.1187C57.8833 17.8179 58.8322 18.2097 59.8209 18.2073C61.9039 18.2047 63.5918 16.5166 63.5945 14.4336V9.47455C63.597 8.4729 63.2003 7.51154 62.4921 6.80322C61.7838 6.09497 60.8225 5.69824 59.8209 5.70081ZM61.4174 9.86157V13.9982C61.4174 15.2006 60.4427 16.1753 59.2404 16.1753C58.038 16.1753 57.0633 15.2006 57.0633 13.9982V9.86157C57.0633 8.65918 58.038 7.68445 59.2404 7.68445C60.4427 7.68445 61.4174 8.65918 61.4174 9.86157Z" fill="black"/>
<path fill-rule="evenodd" clip-rule="evenodd" d="M80.2365 5.67664C79.2477 5.67419 78.2988 6.06598 77.5997 6.7652L77.503 6.86194V1.22559H75.3018V17.917H77.503V17.0219L77.5997 17.1187C78.2988 17.8179 79.2477 18.2097 80.2365 18.2073C82.3194 18.2047 84.0073 16.5166 84.01 14.4336V9.45032C84.0073 7.36731 82.3194 5.67932 80.2365 5.67664ZM81.8329 9.86157V13.9982C81.8329 15.2006 80.8582 16.1753 79.6559 16.1753C78.4535 16.1753 77.4788 15.2006 77.4788 13.9982V9.86157C77.4788 8.65918 78.4535 7.68445 79.6559 7.68445C80.8582 7.68445 81.8329 8.65918 81.8329 9.86157Z" fill="black"/>
<path fill-rule="evenodd" clip-rule="evenodd" d="M141.799 1.22559V6.86194L141.702 6.7652C141.003 6.06598 140.054 5.67419 139.066 5.67664C136.983 5.67932 135.295 7.36731 135.292 9.45032V14.4094C135.294 15.4074 135.693 16.3637 136.401 17.0671C137.109 17.7706 138.068 18.1634 139.066 18.1589C140.054 18.1614 141.003 17.7696 141.702 17.0703L141.799 16.9736V17.8686H144V1.22559H141.799ZM141.775 9.86169V13.9983C141.775 15.2007 140.8 16.1754 139.598 16.1754C138.396 16.1754 137.421 15.2007 137.421 13.9983V9.86169C137.421 8.6593 138.396 7.68457 139.598 7.68457C140.8 7.68457 141.775 8.6593 141.775 9.86169Z" fill="black"/>
<path fill-rule="evenodd" clip-rule="evenodd" d="M73.7292 9.83749C73.7224 9.69147 73.7063 9.54602 73.6808 9.40207V9.3537C73.5647 8.69443 73.309 8.0676 72.9309 7.5152C72.1786 6.44132 70.9746 5.77243 69.6654 5.70093H69.4235C67.3126 5.69956 65.5016 7.20535 65.1177 9.2811V9.3053H67.2706V9.2811C67.4651 8.27179 68.3473 7.54166 69.3751 7.5394C69.9341 7.54093 70.4711 7.75748 70.8748 8.14417C71.2773 8.53156 71.5118 9.06134 71.528 9.61978V10.6358H68.4075C66.5089 10.6379 64.9076 12.0504 64.6683 13.9339C64.429 15.8174 65.6264 17.5854 67.4641 18.0623C67.4883 18.0623 67.5125 18.0623 67.5125 18.0864C67.585 18.1106 67.6576 18.1106 67.7302 18.1348C67.8028 18.159 67.8996 18.159 67.9963 18.1832H68.0446C68.2374 18.2044 68.4314 18.2125 68.6252 18.2074C69.6676 18.229 70.6762 17.8377 71.4312 17.1188L71.528 17.0221V17.9171H73.7292V9.83749H73.7292ZM68.8549 12.281H71.5157V13.8292C71.5078 14.9975 70.6785 15.9987 69.5322 16.2241C69.374 16.2629 69.2111 16.2792 69.0484 16.2724C68.6554 16.2737 68.2699 16.1648 67.9357 15.958C67.8389 15.9096 67.7422 15.837 67.6454 15.7886C67.5208 15.6882 67.4072 15.5746 67.3068 15.45L67.2826 15.4258C67.0157 15.0884 66.8707 14.6707 66.8713 14.2404C66.8871 13.1555 67.7698 12.2836 68.8549 12.281" fill="black"/>
<path fill-rule="evenodd" clip-rule="evenodd" d="M94.1693 9.83755C94.1625 9.69152 94.1464 9.54608 94.1209 9.40213L94.1209 9.35372C94.0048 8.69448 93.7492 8.06765 93.371 7.51525C92.6187 6.44137 91.4147 5.77249 90.1055 5.70095H89.8636C87.7481 5.69375 85.9304 7.20092 85.5457 9.28115V9.30535H87.6986V9.28115C87.8931 8.27182 88.7753 7.54171 89.8031 7.53945C90.3621 7.54098 90.8991 7.75753 91.3029 8.14419C91.7053 8.53158 91.9398 9.06143 91.9559 9.61984V10.6358H88.8355C86.9369 10.6379 85.3355 12.0504 85.0963 13.9339C84.8571 15.8175 86.0544 17.5855 87.8921 18.0623C87.9163 18.0623 87.9405 18.0623 87.9405 18.0865C88.0131 18.1107 88.0856 18.1107 88.1582 18.1349C88.2308 18.159 88.3276 18.159 88.4243 18.1832H88.4727C88.6654 18.2044 88.8594 18.2125 89.0532 18.2074C90.0955 18.2291 91.1042 17.8378 91.8592 17.1189L91.9559 17.0221V17.9171H94.1572V9.83755H94.1693ZM89.283 12.2808H91.9439V13.829C91.9359 14.9972 91.1066 15.9985 89.9603 16.2238C89.8021 16.2627 89.6393 16.279 89.4765 16.2722C89.0835 16.2735 88.698 16.1645 88.3638 15.9578C88.267 15.9094 88.1703 15.8368 88.0735 15.7884C87.9489 15.6879 87.8353 15.5744 87.7349 15.4497L87.7107 15.4256C87.4438 15.0882 87.2989 14.6704 87.2995 14.2402C87.3229 13.1585 88.2012 12.2909 89.283 12.2808Z" fill="black"/>
</svg>
